<svg width="28" height="28" viewBox="0 0 28 28" fill="none" xmlns="http://www.w3.org/2000/svg">
<path d="M10.5404 4.61752L11.3091 6.70219C9.62076 7.32465 8.20048 8.51326 7.29026 10.0655C6.38004 11.6177 6.0362 13.4375 6.31731 15.2149C6.59842 16.9922 7.48709 18.6171 8.83192 19.8126C10.1767 21.0082 11.8945 21.7005 13.6925 21.7715C15.4905 21.8426 17.2576 21.288 18.6925 20.2022C20.1275 19.1165 21.1416 17.5668 21.5621 15.8172C21.9825 14.0676 21.7833 12.2263 20.9984 10.6071C20.2135 8.98789 18.8914 7.69093 17.2575 6.93721L18.1881 4.91926C20.289 5.8882 21.9889 7.55562 22.9982 9.6374C24.0075 11.7192 24.2638 14.0865 23.7233 16.3361C23.1829 18.5856 21.8791 20.5781 20.0343 21.9742C18.1894 23.3703 15.9175 24.0834 13.6058 23.9922C11.294 23.901 9.08541 23.011 7.35626 21.474C5.62711 19.9369 4.48442 17.8478 4.12288 15.5627C3.76133 13.2776 4.20331 10.9378 5.3735 8.94201C6.5437 6.94622 8.3697 5.41792 10.5404 4.61752Z" fill="#7A7A7A"/>
</svg>
