<svg width="20" height="20" viewBox="0 0 20 20" fill="none" xmlns="http://www.w3.org/2000/svg">
<path fill-rule="evenodd" clip-rule="evenodd" d="M11.5626 5.39233C11.5225 5.4188 11.4845 5.44968 11.4492 5.48497C11.4492 5.48497 11.4492 5.48497 11.4492 5.48497L0.211738 16.7224C-0.0705794 17.0048 -0.0705792 17.4625 0.211738 17.7448L2.25434 19.7874C2.53665 20.0697 2.99438 20.0697 3.2767 19.7874L14.5142 8.54993C14.7965 8.26761 14.7965 7.80989 14.5142 7.52757L12.4716 5.48497C12.3785 5.39186 12.2663 5.32946 12.1476 5.29777C11.9514 5.24537 11.7375 5.2769 11.5626 5.39233ZM8.99831 9.9806L10.0185 11.0008L2.76552 18.2539L1.74528 17.2336L8.99831 9.9806Z" fill="#6B04FD"/>
<path d="M14.9396 5.78421L14.0937 3.76206L12.0479 2.83187L14.0937 1.9219L14.9396 0.000854492L15.7854 1.9219L17.8312 2.83187L15.7854 3.76206L14.9396 5.78421Z" fill="#6B04FD"/>
<path d="M17.4698 12.2905L16.7297 10.5211L14.9396 9.70718L16.7297 8.91096L17.4698 7.23004L18.2099 8.91096L20 9.70718L18.2099 10.5211L17.4698 12.2905Z" fill="#6B04FD"/>
</svg>
